{
  "accessors": [
    {
      "bufferView": 2,
      "componentType": 5126,
      "count": 65532,
      "max": [
        34.455326080322266,
        40.437835693359375,
        29.30718994140625
      ],
      "min": [
        -29.645891189575195,
        -39.0599365234375,
        -26.89628028869629
      ],
      "type": "VEC3"
    },
    {
      "bufferView": 2,
      "byteOffset": 786384,
      "componentType": 5126,
      "count": 65532,
      "max": [
        0.9999995827674866,
        0.9999792575836182,
        0.9999982714653015
      ],
      "min": [
        -0.9999979734420776,
        -0.999995768070221,
        -0.9999374151229858
      ],
      "type": "VEC3"
    },
    {
      "bufferView": 3,
      "componentType": 5126,
      "count": 65532,
      "max": [
        0.9882352948188782,
        0.95686274766922,
        1.0,
        1.0
      ],
      "min": [
        0.0,
        0.0,
        0.0,
        1.0
      ],
      "type": "VEC4"
    },
    {
      "bufferView": 1,
      "componentType": 5126,
      "count": 65532,
      "max": [
        0.9963213801383972,
        0.5571990013122559
      ],
      "min": [
        0.0019531201105564833,
        0.005949574522674084
      ],
      "type": "VEC2"
    },
    {
      "bufferView": 0,
      "componentType": 5125,
      "count": 329313,
      "type": "SCALAR"
    },
    {
      "bufferView": 2,
      "byteOffset": 1572768,
      "componentType": 5126,
      "count": 65532,
      "max": [
        35.471954345703125,
        32.97186279296875,
        22.365598678588867
      ],
      "min": [
        -35.80882263183594,
        -40.20914077758789,
        -26.78339958190918
      ],
      "type": "VEC3"
    },
    {
      "bufferView": 2,
      "byteOffset": 2359152,
      "componentType": 5126,
      "count": 65532,
      "max": [
        0.9996510744094849,
        0.9998533129692078,
        0.9999920129776001
      ],
      "min": [
        -0.9999961853027344,
        -0.9999850988388062,
        -0.9999769330024719
      ],
      "type": "VEC3"
    },
    {
      "bufferView": 3,
      "byteOffset": 1048512,
      "componentType": 5126,
      "count": 65532,
      "max": [
        1.0,
        1.0,
        1.0,
        1.0
      ],
      "min": [
        0.0,
        0.0,
        0.0,
        1.0
      ],
      "type": "VEC4"
    },
    {
      "bufferView": 1,
      "byteOffset": 524256,
      "componentType": 5126,
      "count": 65532,
      "max": [
        0.995039701461792,
        0.5876557230949402
      ],
      "min": [
        0.0471160002052784,
        0.07106328755617142
      ],
      "type": "VEC2"
    },
    {
      "bufferView": 0,
      "byteOffset": 1317252,
      "componentType": 5125,
      "count": 322407,
      "type": "SCALAR"
    },
    {
      "bufferView": 2,
      "byteOffset": 3145536,
      "componentType": 5126,
      "count": 65532,
      "max": [
        30.93214988708496,
        27.166427612304688,
        29.319734573364258
      ],
      "min": [
        -35.640403747558594,
        -40.121055603027344,
        -26.892803192138672
      ],
      "type": "VEC3"
    },
    {
      "bufferView": 2,
      "byteOffset": 3931920,
      "componentType": 5126,
      "count": 65532,
      "max": [
        0.9998827576637268,
        0.9999257326126099,
        0.9999919533729553
      ],
      "min": [
        -0.9999976754188538,
        -0.9999986886978149,
        -0.9999616146087646
      ],
      "type": "VEC3"
    },
    {
      "bufferView": 3,
      "byteOffset": 2097024,
      "componentType": 5126,
      "count": 65532,
      "max": [
        0.9254902005195618,
        0.9450980424880981,
        0.9921568632125854,
        1.0
      ],
      "min": [
        0.0,
        0.0,
        0.0,
        1.0
      ],
      "type": "VEC4"
    },
    {
      "bufferView": 1,
      "byteOffset": 1048512,
      "componentType": 5126,
      "count": 65532,
      "max": [
        0.9868732690811157,
        0.589704692363739
      ],
      "min": [
        0.09376659989356995,
        0.0019531201105564833
      ],
      "type": "VEC2"
    },
    {
      "bufferView": 0,
      "byteOffset": 2606880,
      "componentType": 5125,
      "count": 334482,
      "type": "SCALAR"
    },
    {
      "bufferView": 2,
      "byteOffset": 4718304,
      "componentType": 5126,
      "count": 65532,
      "max": [
        36.05394744873047,
        30.999197006225586,
        29.280954360961914
      ],
      "min": [
        -35.4248046875,
        -40.238975524902344,
        -26.729326248168945
      ],
      "type": "VEC3"
    },
    {
      "bufferView": 2,
      "byteOffset": 5504688,
      "componentType": 5126,
      "count": 65532,
      "max": [
        0.9992946982383728,
        0.9996951818466187,
        0.9999937415122986
      ],
      "min": [
        -0.9999979734420776,
        -0.9999983310699463,
        -0.9999769330024719
      ],
      "type": "VEC3"
    },
    {
      "bufferView": 3,
      "byteOffset": 3145536,
      "componentType": 5126,
      "count": 65532,
      "max": [
        0.9372549057006836,
        0.9215686321258545,
        0.9725490212440491,
        1.0
      ],
      "min": [
        0.0,
        0.0,
        0.0,
        1.0
      ],
      "type": "VEC4"
    },
    {
      "bufferView": 1,
      "byteOffset": 1572768,
      "componentType": 5126,
      "count": 65532,
      "max": [
        0.9735509157180786,
        0.5875135064125061
      ],
      "min": [
        0.07095795124769211,
        0.038396675139665604
      ],
      "type": "VEC2"
    },
    {
      "bufferView": 0,
      "byteOffset": 3944808,
      "componentType": 5125,
      "count": 319767,
      "type": "SCALAR"
    },
    {
      "bufferView": 2,
      "byteOffset": 6291072,
      "componentType": 5126,
      "count": 65532,
      "max": [
        34.20635223388672,
        34.739288330078125,
        29.188505172729492
      ],
      "min": [
        -35.753604888916016,
        -40.24376678466797,
        -26.730670928955078
      ],
      "type": "VEC3"
    },
    {
      "bufferView": 2,
      "byteOffset": 7077456,
      "componentType": 5126,
      "count": 65532,
      "max": [
        0.9998764395713806,
        0.9999090433120728,
        0.9996773600578308
      ],
      "min": [
        -0.9999640583992004,
        -0.9999991059303284,
        -0.9999889135360718
      ],
      "type": "VEC3"
    },
    {
      "bufferView": 3,
      "byteOffset": 4194048,
      "componentType": 5126,
      "count": 65532,
      "max": [
        1.0,
        0.9960784316062927,
        0.9960784316062927,
        1.0
      ],
      "min": [
        0.0,
        0.0,
        0.0,
        1.0
      ],
      "type": "VEC4"
    },
    {
      "bufferView": 1,
      "byteOffset": 2097024,
      "componentType": 5126,
      "count": 65532,
      "max": [
        0.9980469346046448,
        0.587581992149353
      ],
      "min": [
        0.03976193815469742,
        0.005171562545001507
      ],
      "type": "VEC2"
    },
    {
      "bufferView": 0,
      "byteOffset": 5223876,
      "componentType": 5125,
      "count": 304206,
      "type": "SCALAR"
    },
    {
      "bufferView": 2,
      "byteOffset": 7863840,
      "componentType": 5126,
      "count": 18400,
      "max": [
        29.70389747619629,
        33.36940383911133,
        24.393718719482422
      ],
      "min": [
        -31.74156379699707,
        -39.06089401245117,
        -25.833559036254883
      ],
      "type": "VEC3"
    },
    {
      "bufferView": 2,
      "byteOffset": 8084640,
      "componentType": 5126,
      "count": 18400,
      "max": [
        0.9871681332588196,
        0.9984933733940125,
        0.9804272055625916
      ],
      "min": [
        -0.999875545501709,
        -0.9999813437461853,
        -0.9999616146087646
      ],
      "type": "VEC3"
    },
    {
      "bufferView": 3,
      "byteOffset": 5242560,
      "componentType": 5126,
      "count": 18400,
      "max": [
        1.0,
        1.0,
        0.9960784316062927,
        1.0
      ],
      "min": [
        0.05882352963089943,
        0.10588235408067703,
        0.0235294122248888,
        1.0
      ],
      "type": "VEC4"
    },
    {
      "bufferView": 1,
      "byteOffset": 2621280,
      "componentType": 5126,
      "count": 18400,
      "max": [
        0.863690972328186,
        0.5435962080955505
      ],
      "min": [
        0.029389705508947372,
        0.03621211647987366
      ],
      "type": "VEC2"
    },
    {
      "bufferView": 0,
      "byteOffset": 6440700,
      "componentType": 5125,
      "count": 80865,
      "type": "SCALAR"
    }
  ],
  "asset": {
    "extras": {
      "author": "CzernO (https://sketchfab.com/czernobog)",
      "license": "CC-BY-4.0 (http://creativecommons.org/licenses/by/4.0/)",
      "source": "https://sketchfab.com/3d-models/astro-corgi-f958b29707e84605bed930d52ecab470",
      "title": "Astro Corgi"
    },
    "generator": "Sketchfab-16.16.0",
    "version": "2.0"
  },
  "bufferViews": [
    {
      "buffer": 0,
      "byteLength": 6764160,
      "name": "floatBufferViews",
      "target": 34963
    },
    {
      "buffer": 0,
      "byteLength": 2768480,
      "byteOffset": 6764160,
      "byteStride": 8,
      "name": "floatBufferViews",
      "target": 34962
    },
    {
      "buffer": 0,
      "byteLength": 8305440,
      "byteOffset": 9532640,
      "byteStride": 12,
      "name": "floatBufferViews",
      "target": 34962
    },
    {
      "buffer": 0,
      "byteLength": 5536960,
      "byteOffset": 17838080,
      "byteStride": 16,
      "name": "floatBufferViews",
      "target": 34962
    }
  ],
  "buffers": [
    {
      "byteLength": 23375040,
      "uri": "scene.bin"
    }
  ],
  "extensionsUsed": [
    "KHR_materials_unlit"
  ],
  "images": [
    {
      "uri": "textures/geometry_3_baseColor.png"
    }
  ],
  "materials": [
    {
      "doubleSided": true,
      "emissiveFactor": [
        1.0,
        1.0,
        1.0
      ],
      "emissiveTexture": {
        "index": 0
      },
      "extensions": {
        "KHR_materials_unlit": {}
      },
      "name": "geometry_3",
      "pbrMetallicRoughness": {
        "baseColorTexture": {
          "index": 0
        },
        "metallicFactor": 0.0
      }
    }
  ],
  "meshes": [
    {
      "name": "geometry_3_geometry_3_0",
      "primitives": [
        {
          "attributes": {
            "COLOR_0": 2,
            "NORMAL": 1,
            "POSITION": 0,
            "TEXCOORD_0": 3
          },
          "indices": 4,
          "material": 0,
          "mode": 4
        }
      ]
    },
    {
      "name": "geometry_3_geometry_3_0",
      "primitives": [
        {
          "attributes": {
            "COLOR_0": 7,
            "NORMAL": 6,
            "POSITION": 5,
            "TEXCOORD_0": 8
          },
          "indices": 9,
          "material": 0,
          "mode": 4
        }
      ]
    },
    {
      "name": "geometry_3_geometry_3_0",
      "primitives": [
        {
          "attributes": {
            "COLOR_0": 12,
            "NORMAL": 11,
            "POSITION": 10,
            "TEXCOORD_0": 13
          },
          "indices": 14,
          "material": 0,
          "mode": 4
        }
      ]
    },
    {
      "name": "geometry_3_geometry_3_0",
      "primitives": [
        {
          "attributes": {
            "COLOR_0": 17,
            "NORMAL": 16,
            "POSITION": 15,
            "TEXCOORD_0": 18
          },
          "indices": 19,
          "material": 0,
          "mode": 4
        }
      ]
    },
    {
      "name": "geometry_3_geometry_3_0",
      "primitives": [
        {
          "attributes": {
            "COLOR_0": 22,
            "NORMAL": 21,
            "POSITION": 20,
            "TEXCOORD_0": 23
          },
          "indices": 24,
          "material": 0,
          "mode": 4
        }
      ]
    },
    {
      "name": "geometry_3_geometry_3_0",
      "primitives": [
        {
          "attributes": {
            "COLOR_0": 27,
            "NORMAL": 26,
            "POSITION": 25,
            "TEXCOORD_0": 28
          },
          "indices": 29,
          "material": 0,
          "mode": 4
        }
      ]
    }
  ],
  "nodes": [
    {
      "children": [
        1
      ],
      "matrix": [
        1.0,
        0.0,
        0.0,
        0.0,
        0.0,
        2.220446049250313e-16,
        -1.0,
        0.0,
        0.0,
        1.0,
        2.220446049250313e-16,
        0.0,
        0.0,
        0.0,
        0.0,
        1.0
      ],
      "name": "Sketchfab_model"
    },
    {
      "children": [
        2
      ],
      "matrix": [
        0.009999999776482582,
        0.0,
        0.0,
        0.0,
        0.0,
        0.0,
        0.009999999776482582,
        0.0,
        0.0,
        -0.009999999776482582,
        0.0,
        0.0,
        0.0,
        0.0,
        0.0,
        1.0
      ],
      "name": "astro corgi.fbx"
    },
    {
      "children": [
        3,
        10
      ],
      "name": "RootNode"
    },
    {
      "children": [
        4,
        5,
        6,
        7,
        8,
        9
      ],
      "name": "geometry_3"
    },
    {
      "mesh": 0,
      "name": "geometry_3_geometry_3_0"
    },
    {
      "mesh": 1,
      "name": "geometry_3_geometry_3_0"
    },
    {
      "mesh": 2,
      "name": "geometry_3_geometry_3_0"
    },
    {
      "mesh": 3,
      "name": "geometry_3_geometry_3_0"
    },
    {
      "mesh": 4,
      "name": "geometry_3_geometry_3_0"
    },
    {
      "mesh": 5,
      "name": "geometry_3_geometry_3_0"
    },
    {
      "children": [
        11
      ],
      "matrix": [
        -0.6859207071591005,
        -1.6574959296744574e-07,
        0.7276762903175642,
        0.0,
        -0.3240135424907181,
        0.8953956556469658,
        -0.3054207657169955,
        0.0,
        -0.6515581384442797,
        -0.4452714002139738,
        -0.6141704750136658,
        0.0,
        735.88916015625,
        495.8309326171875,
        692.5791015625,
        1.0
      ],
      "name": "Camera"
    },
    {
      "name": "Object_11"
    }
  ],
  "samplers": [
    {
      "magFilter": 9729,
      "minFilter": 9987,
      "wrapS": 10497,
      "wrapT": 10497
    }
  ],
  "scene": 0,
  "scenes": [
    {
      "name": "Sketchfab_Scene",
      "nodes": [
        0
      ]
    }
  ],
  "textures": [
    {
      "sampler": 0,
      "source": 0
    }
  ]
}
