<?xml version="1.0" encoding="UTF-8"?>
<svg xmlns="http://www.w3.org/2000/svg" xmlns:xlink="http://www.w3.org/1999/xlink" width="1500px" height="1500px" viewBox="0 0 750 750" version="1.1">
<g id="surface1">
<rect x="0" y="0" width="750" height="750" style="fill:rgb(0%,10.196079%,83.92157%);fill-opacity:1;stroke:none;"/>
<path style=" stroke:none;fill-rule:nonzero;fill:rgb(96.078432%,96.078432%,96.078432%);fill-opacity:1;" d="M 395.636719 213.019531 L 505.109375 213.019531 C 503.027344 263.363281 501.984375 317.285156 501.984375 374.777344 C 501.984375 432.566406 503.027344 486.636719 505.109375 536.980469 L 345.136719 536.980469 L 237.003906 293 L 245.046875 536.980469 L 130.210938 536.980469 C 132.589844 479.191406 133.78125 425.121094 133.78125 374.777344 C 133.78125 324.726562 132.589844 270.808594 130.210938 213.019531 L 294.644531 213.019531 L 403.234375 463.691406 Z M 395.636719 213.019531 "/>
<path style=" stroke:none;fill-rule:nonzero;fill:rgb(96.078432%,96.078432%,96.078432%);fill-opacity:1;" d="M 619.789062 290.320312 C 619.789062 266.191406 600.230469 246.628906 576.101562 246.628906 C 551.972656 246.628906 532.414062 266.191406 532.414062 290.320312 C 532.414062 314.445312 551.972656 334.007812 576.101562 334.007812 C 600.230469 334.007812 619.789062 314.445312 619.789062 290.320312 Z M 619.789062 290.320312 "/>
</g>
</svg>
